<?xml version="1.0" encoding="utf-8"?>
<!-- Generator: Adobe Illustrator 26.0.0, SVG Export Plug-In . SVG Version: 6.00 Build 0)  -->
<svg version="1.1" id="Layer_1" xmlns="http://www.w3.org/2000/svg" xmlns:xlink="http://www.w3.org/1999/xlink" x="0px" y="0px"
	 viewBox="0 0 512 512" style="enable-background:new 0 0 512 512;" xml:space="preserve">
<style type="text/css">
	.st0{fill:#FFB727;}
</style>
<path class="st0" d="M329.5,142.9l-32.9,19c-8.8-7.6-18.9-13.5-29.9-17.4v-37.9h-64v37.9c-10.9,3.9-21.1,9.8-29.9,17.4l-33.1-19
	l-32,55.5l32.6,18.8c-2.4,11.5-2.4,23.4,0,34.9l-32.6,18.8l32,55.5l32.9-19c8.8,7.6,18.9,13.5,29.9,17.4v37.9h64v-37.9
	c10.9-3.9,21.1-9.8,29.9-17.4l32.9,19l32-55.5l-32.6-18.8c2.4-11.5,2.4-23.4,0-34.9l32.8-18.8L329.5,142.9z M234.7,266.7
	c-17.7,0-32-14.3-32-32s14.3-32,32-32s32,14.3,32,32S252.3,266.7,234.7,266.7z M509.2,264.4c-4.8-10.7-9.5-21.7-14.3-32.7
	c-18.2-48.3-42-94.3-70.8-137C346.4-9.6,198.8-31.1,94.5,46.7C52.6,78,22.2,122.3,8.3,172.8c-20,74.5-2,154,48.2,212.5
	c4.8,5.7,7.4,12.9,7.5,20.4V512h298.7v-64h19.1c37.2-0.1,68.7-27.6,74-64.5l7.3-52.9H512v-60.1L509.2,264.4z M407.2,266.7
	l-14.9,108.1c-0.7,5.3-5.3,9.3-10.7,9.2h-82.9v64H128v-42.3c0-22.4-7.9-44.2-22.3-61.4c-36.7-42.6-50-100.5-35.6-154.9
	C95.6,98.1,190.3,44.8,281.6,70.3c37,10.3,69.4,32.7,92.1,63.7c25.2,38.7,46.2,80,62.6,123.2l4.1,9.5L407.2,266.7z"/>
</svg>
