<?xml version="1.0" encoding="utf-8"?>
<!-- Generator: Adobe Illustrator 26.0.0, SVG Export Plug-In . SVG Version: 6.00 Build 0)  -->
<svg version="1.1" id="Layer_1" xmlns="http://www.w3.org/2000/svg" xmlns:xlink="http://www.w3.org/1999/xlink" x="0px" y="0px"
	 viewBox="0 0 512 512" style="enable-background:new 0 0 512 512;" xml:space="preserve">
<style type="text/css">
	.st0{fill:#FFB727;}
</style>
<path class="st0" d="M205.6,252.8L13.9,322.2c-6.8,2.5-12,8.3-13.6,15.4c-1.6,7.1,0.6,14.6,5.8,19.7l59.6,59.6L6.4,476.3
	c-8.3,8.3-8.3,21.8,0,30.2c4.2,4.2,9.6,6.3,15.1,6.3s10.9-2.1,15.1-6.3l59.3-59.3l59.6,59.6c4,4,9.5,6.3,15.1,6.3
	c1.5,0,3.1-0.2,4.6-0.5c7.1-1.6,12.9-6.7,15.4-13.6L260,307.2l0.1-0.4c5.3-15.5,1.4-32.4-10.2-44
	C238.4,251.3,221.5,247.4,205.6,252.8L205.6,252.8z M161.9,452.8L60,350.9l159.8-58L161.9,452.8L161.9,452.8z M512.1,214
	c0,117.6-95.7,213.3-213.3,213.3c-11.8,0-21.3-9.6-21.3-21.3s9.5-21.3,21.3-21.3c94.1,0,170.7-76.6,170.7-170.7
	S392.9,43.3,298.8,43.3S128.1,119.9,128.1,214c0,11.8-9.5,21.3-21.3,21.3s-21.3-9.6-21.3-21.3C85.5,96.4,181.2,0.7,298.8,0.7
	S512.1,96.4,512.1,214z M384.1,214c0-47.1-38.3-85.3-85.3-85.3c-34.6,0-65.6,20.7-78.8,52.7c-4.5,10.9-17,16-27.9,11.5
	s-16-17-11.5-27.9c19.9-48,66.3-79,118.3-79c70.6,0,128,57.4,128,128c0,52-31,98.4-79,118.3c-2.7,1.1-5.4,1.6-8.2,1.6
	c-8.4,0-16.3-5-19.7-13.2c-4.5-10.9,0.7-23.4,11.5-27.9C363.5,279.6,384.1,248.7,384.1,214L384.1,214z"/>
</svg>
