<?xml version="1.0" encoding="utf-8"?>
<!-- Generator: Adobe Illustrator 26.0.0, SVG Export Plug-In . SVG Version: 6.00 Build 0)  -->
<svg version="1.1" id="Layer_1" xmlns="http://www.w3.org/2000/svg" xmlns:xlink="http://www.w3.org/1999/xlink" x="0px" y="0px"
	 viewBox="0 0 512 512" style="enable-background:new 0 0 512 512;" xml:space="preserve">
<style type="text/css">
	.st0{fill:#FFB727;}
</style>
<path class="st0" d="M117.3,149.3c41.2,0,74.7-33.5,74.7-74.7S158.5,0,117.3,0S42.7,33.5,42.7,74.7S76.2,149.3,117.3,149.3z
	 M117.3,42.7c17.6,0,32,14.4,32,32s-14.4,32-32,32s-32-14.4-32-32S99.7,42.7,117.3,42.7z M309.3,149.3c41.2,0,74.7-33.5,74.7-74.7
	S350.5,0,309.3,0s-74.7,33.5-74.7,74.7S268.2,149.3,309.3,149.3z M309.3,42.7c17.6,0,32,14.4,32,32s-14.4,32-32,32s-32-14.4-32-32
	S291.7,42.7,309.3,42.7z M469.3,362.7c0-11.8-1.9-23.1-5.5-33.7l38.8-22.4l-21.3-37L442.5,292c-15.1-17-35.5-29.2-58.5-33.9v-44.8
	h-42.7v44.8c-23.1,4.7-43.5,16.9-58.5,33.9l-38.9-22.4l-21.3,37l38.8,22.4c-3.5,10.6-5.5,21.9-5.5,33.7s1.9,23.1,5.5,33.7
	l-38.8,22.4l21.3,37l38.9-22.4c15.1,17,35.5,29.2,58.5,33.9V512H384v-44.8c23.1-4.7,43.5-16.9,58.5-33.9l38.9,22.4l21.3-37
	l-38.8-22.4C467.4,385.7,469.3,374.4,469.3,362.7z M362.7,426.7c-35.3,0-64-28.7-64-64s28.7-64,64-64s64,28.7,64,64
	S398,426.7,362.7,426.7z M233.6,220.8c-5.5-4.6-12.5-7.5-20.3-7.5c-17.6,0-32,14.4-32,32c0,10.4,5.1,19.6,12.8,25.4
	c-6.8,12.5-12.2,25.9-16.1,39.9c-23.3-12.5-39.3-37-39.3-65.3c0-41.2,33.5-74.7,74.7-74.7c21.9,0,41.6,9.6,55.2,24.8
	C255.9,202.6,244.2,211.1,233.6,220.8z M213.3,341.3c-0.8,7-1.3,14.1-1.3,21.3c0,7.2,0.5,14.3,1.3,21.3h-64
	c-11.8,0-21.3,9.6-21.3,21.3v64H85.3v-64c0-35.3,28.7-64,64-64H213.3z M100.5,213.3H64c-11.8,0-21.3,9.6-21.3,21.3v64H0v-64
	c0-35.3,28.7-64,64-64h58.9C112.7,183,105,197.5,100.5,213.3L100.5,213.3z"/>
</svg>
